<svg width="18" height="20" viewBox="0 0 18 20" fill="none" xmlns="http://www.w3.org/2000/svg">
    <!-- Тень для пути -->
    <defs>
        <!-- Фильтр с тенью -->
        <filter id="shadow" x="-50%" y="-50%" width="200%" height="200%">
            <feDropShadow dx="0" dy="0" stdDeviation="2vw" flood-color="#000000" flood-opacity="0.5"/>
        </filter>
    </defs>

    <!-- Путь -->
    <path d="M6.44743 4.34782H8.69594C12.5379 4.34782 15.6525 7.46236 15.6525 11.3043C15.6525 15.1463 12.5379 18.2609 8.69594 18.2609C4.85396 18.2609 1.73942 15.1463 1.73942 11.3043C1.73942 10.8241 1.3501 10.4348 0.869852 10.4348C0.389605 10.4348 0.000286102 10.8241 0.000286102 11.3043C0.000286102 16.1068 3.89346 20 8.69594 20C13.4984 20 17.3916 16.1068 17.3916 11.3043C17.3916 6.50186 13.4984 2.60868 8.69594 2.60868H6.44743L7.57169 1.48442C7.91127 1.14483 7.91127 0.594277 7.57169 0.25469C7.2321 -0.0848966 6.68152 -0.0848966 6.34194 0.25469L3.73324 2.86339C3.39365 3.20297 3.39365 3.75353 3.73324 4.09311L6.34194 6.70181C6.68152 7.0414 7.2321 7.0414 7.57169 6.70181C7.91127 6.36222 7.91127 5.81167 7.57169 5.47208L6.44743 4.34782Z" fill="white" filter="url(#shadow)"/>
</svg>
